<svg viewBox="0 0 9.99146 11.2531" xmlns="http://www.w3.org/2000/svg" xmlns:xlink="http://www.w3.org/1999/xlink" width="9.991455" height="11.253052" fill="none" customFrame="#000000">
	<path id="Arrow 1" d="M1.07717e-07 -0.75L10.5 -0.749999L10.5 0.750001L-1.07717e-07 0.75L1.07717e-07 -0.75ZM9.43934 1.35571e-06L5.72703 -3.71231C5.43004 -4.0093 5.43004 -4.47599 5.72703 -4.77297C6.02401 -5.06995 6.49071 -5.06995 6.78769 -4.77297L11.0303 -0.530329C11.3273 -0.233344 11.3273 0.233347 11.0303 0.530332L6.78769 4.77297C6.4907 5.06996 6.02401 5.06996 5.72703 4.77297C5.43004 4.47599 5.43004 4.0093 5.72703 3.71231L9.43934 1.35571e-06Z" fill="rgb(113,142,191)" fill-rule="nonzero" transform="matrix(-4.37115e-08,-1,1,-4.37115e-08,4.99573,11.2531)" />
</svg>
