<svg viewBox="0 0 19.1406 19.1406" xmlns="http://www.w3.org/2000/svg" xmlns:xlink="http://www.w3.org/1999/xlink" width="19.140625" height="19.140625" fill="none" customFrame="#000000">
	<g id="Group">
		<path id="Vector" d="M18.9062 17.7812L14.3047 13.1797C15.4453 11.7891 16.1328 10.0078 16.1328 8.06641C16.1328 3.61328 12.5195 0 8.06641 0C3.60938 0 0 3.61328 0 8.06641C0 12.5195 3.60938 16.1328 8.06641 16.1328C10.0078 16.1328 11.7852 15.4492 13.1758 14.3086L17.7773 18.9062C18.0898 19.2188 18.5938 19.2188 18.9062 18.9062C19.2188 18.5977 19.2188 18.0898 18.9062 17.7812ZM8.06641 14.5273C4.5 14.5273 1.60156 11.6289 1.60156 8.06641C1.60156 4.50391 4.5 1.60156 8.06641 1.60156C11.6289 1.60156 14.5312 4.50391 14.5312 8.06641C14.5312 11.6289 11.6289 14.5273 8.06641 14.5273Z" fill="rgb(113,142,191)" fill-rule="nonzero" />
	</g>
</svg>
